<svg width="22" height="18" viewBox="0 0 22 18" fill="none" xmlns="http://www.w3.org/2000/svg">
<path d="M18.1557 9.71786H16.5146C16.6819 10.1758 16.7733 10.67 16.7733 11.1852V17.3873C16.7733 17.6021 16.7359 17.8082 16.6679 17.9999H19.3809C20.3943 17.9999 21.2188 17.1754 21.2188 16.162V12.781C21.2188 11.092 19.8447 9.71786 18.1557 9.71786Z" fill="#9B9D9E"/>
<path d="M4.44552 11.1852C4.44552 10.67 4.53691 10.1759 4.70418 9.7179H3.06315C1.37413 9.7179 0 11.092 0 12.781V16.1621C0 17.1755 0.824451 18 1.83789 18H4.55091C4.4829 17.8082 4.44552 17.6021 4.44552 17.3873V11.1852V11.1852Z" fill="#9B9D9E"/>
<path d="M12.4852 8.12206H8.73356C7.04454 8.12206 5.67041 9.49618 5.67041 11.1852V17.3873C5.67041 17.7257 5.94469 18 6.28304 18H14.9357C15.274 18 15.5483 17.7257 15.5483 17.3873V11.1852C15.5483 9.49618 14.1742 8.12206 12.4852 8.12206Z" fill="#9B9D9E"/>
<path d="M10.6096 0C8.57833 0 6.92578 1.65255 6.92578 3.68386C6.92578 5.06167 7.68624 6.26501 8.8093 6.89679C9.34198 7.19643 9.9561 7.36768 10.6096 7.36768C11.2631 7.36768 11.8772 7.19643 12.4099 6.89679C13.533 6.26501 14.2934 5.06163 14.2934 3.68386C14.2934 1.65259 12.6409 0 10.6096 0Z" fill="#9B9D9E"/>
<path d="M4.14075 3.43362C2.62161 3.43362 1.38574 4.66949 1.38574 6.18863C1.38574 7.70777 2.62161 8.94364 4.14075 8.94364C4.5261 8.94364 4.89305 8.86382 5.22638 8.72034C5.80271 8.47221 6.27791 8.03299 6.57196 7.48281C6.77835 7.09668 6.89576 6.65617 6.89576 6.18863C6.89576 4.66953 5.65989 3.43362 4.14075 3.43362Z" fill="#9B9D9E"/>
<path d="M17.0783 3.43362C15.5591 3.43362 14.3232 4.66949 14.3232 6.18863C14.3232 6.65621 14.4407 7.09672 14.647 7.48281C14.9411 8.03303 15.4163 8.47226 15.9926 8.72034C16.326 8.86382 16.6929 8.94364 17.0783 8.94364C18.5974 8.94364 19.8333 7.70777 19.8333 6.18863C19.8333 4.66949 18.5974 3.43362 17.0783 3.43362Z" fill="#9B9D9E"/>
</svg>
