<svg width="24" height="25" viewBox="0 0 24 25" fill="none" xmlns="http://www.w3.org/2000/svg">
<path d="M18.9772 4.81958C18.6559 4.81958 18.3945 5.08171 18.3945 5.40381C18.3945 5.72591 18.6559 5.98804 18.9772 5.98804C19.2984 5.98804 19.5598 5.72596 19.5598 5.40381C19.5598 5.08166 19.2984 4.81958 18.9772 4.81958Z" fill="white"/>
<path d="M11.9999 7.21997C9.15169 7.21997 6.83447 9.54368 6.83447 12.3999C6.83447 15.2561 9.15169 17.5798 11.9999 17.5798C14.8482 17.5798 17.1654 15.2561 17.1654 12.3999C17.1654 9.54373 14.8482 7.21997 11.9999 7.21997Z" fill="white"/>
<path d="M17.4208 0.366211H6.57923C2.95144 0.366211 0 3.32594 0 6.96396V17.8359C0 21.4739 2.95144 24.4336 6.57923 24.4336H17.4208C21.0486 24.4336 24 21.4739 24 17.8359V6.96396C24 3.32594 21.0486 0.366211 17.4208 0.366211ZM12 19.0011C8.37023 19.0011 5.4173 16.0399 5.4173 12.3999C5.4173 8.75995 8.37028 5.79876 12 5.79876C15.6297 5.79876 18.5828 8.75999 18.5828 12.3999C18.5828 16.0398 15.6297 19.0011 12 19.0011ZM18.9765 7.40949C17.8737 7.40949 16.9765 6.50979 16.9765 5.40391C16.9765 4.29803 17.8737 3.39828 18.9765 3.39828C20.0792 3.39828 20.9764 4.29798 20.9764 5.40386C20.9764 6.50974 20.0792 7.40949 18.9765 7.40949Z" fill="white"/>
</svg>
