<svg width="24" height="25" viewBox="0 0 24 25" fill="none" xmlns="http://www.w3.org/2000/svg">
<path d="M20.7273 0.366211H3.27273C2.40475 0.366211 1.57232 0.711983 0.95856 1.32746C0.344804 1.94294 0 2.77771 0 3.64813L0 21.1517C0 22.0221 0.344804 22.8569 0.95856 23.4723C1.57232 24.0878 2.40475 24.4336 3.27273 24.4336H20.7273C21.5953 24.4336 22.4277 24.0878 23.0414 23.4723C23.6552 22.8569 24 22.0221 24 21.1517V3.64813C24 2.77771 23.6552 1.94294 23.0414 1.32746C22.4277 0.711983 21.5953 0.366211 20.7273 0.366211V0.366211ZM8.18182 19.4123C8.182 19.479 8.16904 19.5451 8.1437 19.6068C8.11836 19.6685 8.08112 19.7246 8.03412 19.7719C7.98713 19.8191 7.9313 19.8566 7.86983 19.8822C7.80836 19.9078 7.74246 19.921 7.67591 19.921H5.52C5.45333 19.9211 5.38729 19.9081 5.32566 19.8826C5.26404 19.8571 5.20804 19.8196 5.1609 19.7724C5.11376 19.7251 5.0764 19.6689 5.05097 19.6071C5.02555 19.5453 5.01255 19.4791 5.01273 19.4123V10.3487C5.01273 10.2138 5.06617 10.0844 5.1613 9.989C5.25644 9.8936 5.38546 9.84001 5.52 9.84001H7.67591C7.81021 9.84037 7.93889 9.89412 8.03372 9.98948C8.12856 10.0848 8.18182 10.214 8.18182 10.3487V19.4123ZM6.59727 8.98124C6.19272 8.98124 5.79725 8.86094 5.46088 8.63555C5.12451 8.41016 4.86234 8.08981 4.70752 7.715C4.5527 7.34019 4.5122 6.92777 4.59112 6.52987C4.67005 6.13198 4.86486 5.76649 5.15092 5.47963C5.43698 5.19276 5.80144 4.9974 6.19822 4.91826C6.595 4.83911 7.00628 4.87973 7.38003 5.03498C7.75379 5.19023 8.07325 5.45314 8.29801 5.79046C8.52276 6.12778 8.64273 6.52435 8.64273 6.93004C8.64273 7.47405 8.42723 7.99578 8.04363 8.38046C7.66003 8.76513 7.13976 8.98124 6.59727 8.98124ZM19.4509 19.4478C19.4511 19.5093 19.4391 19.5702 19.4158 19.627C19.3924 19.6838 19.3581 19.7354 19.3147 19.7789C19.2714 19.8224 19.2199 19.8568 19.1632 19.8803C19.1066 19.9037 19.0458 19.9157 18.9845 19.9155H16.6664C16.6051 19.9157 16.5443 19.9037 16.4877 19.8803C16.431 19.8568 16.3795 19.8224 16.3362 19.7789C16.2929 19.7354 16.2585 19.6838 16.2351 19.627C16.2118 19.5702 16.1998 19.5093 16.2 19.4478V15.2018C16.2 14.5673 16.3855 12.4231 14.5459 12.4231C13.1209 12.4231 12.8305 13.8904 12.7732 14.5496V19.4533C12.7732 19.5761 12.725 19.6941 12.639 19.7816C12.553 19.8691 12.4361 19.9192 12.3136 19.921H10.0745C10.0134 19.921 9.95279 19.9089 9.89628 19.8853C9.83978 19.8618 9.78846 19.8273 9.74526 19.7839C9.70206 19.7405 9.66784 19.6889 9.64455 19.6322C9.62126 19.5754 9.60937 19.5146 9.60955 19.4533V10.309C9.60937 10.2477 9.62126 10.1869 9.64455 10.1302C9.66784 10.0734 9.70206 10.0219 9.74526 9.97844C9.78846 9.93499 9.83978 9.90052 9.89628 9.877C9.95279 9.85348 10.0134 9.84138 10.0745 9.84138H12.3136C12.4373 9.84138 12.5559 9.89065 12.6434 9.97835C12.7309 10.0661 12.78 10.185 12.78 10.309V11.0994C13.3091 10.3022 14.0932 9.68959 15.7664 9.68959C19.4727 9.68959 19.4482 13.1602 19.4482 15.0665L19.4509 19.4478Z" fill="white"/>
</svg>
