<svg width="34" height="26" viewBox="0 0 34 26" fill="none" xmlns="http://www.w3.org/2000/svg">
<path d="M33.7092 11.7656L23.5098 0.378067C23.2922 0.13665 22.9884 0 22.6666 0H15.867C15.4205 0 15.0147 0.264191 14.8312 0.674144C14.6498 1.08637 14.7246 1.56693 15.0238 1.89945L24.541 12.5263L15.0238 23.1509C14.7246 23.4857 14.6476 23.9663 14.8312 24.3762C15.0147 24.7884 15.4205 25.0526 15.867 25.0526H22.6666C22.9884 25.0526 23.2922 24.9137 23.5098 24.6768L33.7092 13.2893C34.0968 12.8566 34.0968 12.1961 33.7092 11.7656Z" fill="#00C16E"/>
<path d="M18.9768 11.7656L8.77733 0.378067C8.55974 0.13665 8.25603 0 7.93418 0H1.13455C0.688037 0 0.282326 0.264191 0.0987358 0.674144C-0.0825877 1.08637 -0.00779176 1.56693 0.291392 1.89944L9.80861 12.5263L0.291392 23.1509C-0.00779176 23.4857 -0.0848542 23.9663 0.0987358 24.3762C0.282326 24.7884 0.688037 25.0526 1.13455 25.0526H7.93418C8.25603 25.0526 8.55974 24.9137 8.77733 24.6768L18.9768 13.2893C19.3644 12.8566 19.3644 12.1961 18.9768 11.7656Z" fill="#D7FFEE"/>
</svg>
