<svg width="162" height="40" viewBox="0 0 162 40" fill="none" xmlns="http://www.w3.org/2000/svg">
<path d="M49.9696 17.3206L34.8505 0.911009C34.5279 0.563126 34.0777 0.366211 33.6006 0.366211H23.5212C22.8593 0.366211 22.2579 0.746913 21.9857 1.33766C21.7169 1.93168 21.8278 2.62417 22.2713 3.10333L36.3792 18.4167L22.2713 33.7269C21.8278 34.2093 21.7136 34.9018 21.9857 35.4926C22.2579 36.0866 22.8593 36.4673 23.5212 36.4673H33.6006C34.0777 36.4673 34.5279 36.2671 34.8505 35.9258L49.9696 19.5162C50.5442 18.8926 50.5442 17.9409 49.9696 17.3206Z" fill="#0CB679"/>
<path d="M28.1303 17.3206L13.0111 0.911009C12.6886 0.563126 12.2383 0.366211 11.7613 0.366211H1.6818C1.01991 0.366211 0.418507 0.746913 0.146361 1.33766C-0.122424 1.93168 -0.0115501 2.62417 0.431946 3.10333L14.5398 18.4167L0.431946 33.7269C-0.0115501 34.2093 -0.125784 34.9018 0.146361 35.4926C0.418507 36.0866 1.01991 36.4673 1.6818 36.4673H11.7613C12.2383 36.4673 12.6886 36.2671 13.0111 35.9258L28.1303 19.5162C28.7048 18.8926 28.7048 17.9409 28.1303 17.3206Z" fill="#D9FCF0"/>
<path d="M69.476 31.9647C68.372 31.9647 67.316 31.8087 66.308 31.4967C65.3 31.1847 64.376 30.7167 63.536 30.0927C62.696 29.4687 61.964 28.7127 61.34 27.8247C60.716 26.9127 60.224 25.8567 59.864 24.6567L64.436 22.8567C64.772 24.1527 65.36 25.2327 66.2 26.0967C67.04 26.9367 68.144 27.3567 69.512 27.3567C70.016 27.3567 70.496 27.2967 70.952 27.1767C71.432 27.0327 71.852 26.8407 72.212 26.6007C72.596 26.3367 72.896 26.0127 73.112 25.6287C73.328 25.2447 73.436 24.8007 73.436 24.2967C73.436 23.8167 73.352 23.3847 73.184 23.0007C73.016 22.6167 72.728 22.2567 72.32 21.9207C71.936 21.5847 71.42 21.2607 70.772 20.9487C70.148 20.6367 69.368 20.3127 68.432 19.9767L66.848 19.4007C66.152 19.1607 65.444 18.8367 64.724 18.4287C64.028 18.0207 63.392 17.5287 62.816 16.9527C62.24 16.3767 61.76 15.7047 61.376 14.9367C61.016 14.1447 60.836 13.2567 60.836 12.2727C60.836 11.2647 61.028 10.3287 61.412 9.46467C61.82 8.57667 62.384 7.80867 63.104 7.16067C63.848 6.48867 64.724 5.97267 65.732 5.61267C66.764 5.22867 67.904 5.03667 69.152 5.03667C70.448 5.03667 71.564 5.21667 72.5 5.57667C73.46 5.91267 74.264 6.35667 74.912 6.90867C75.584 7.43667 76.124 8.02467 76.532 8.67267C76.94 9.32067 77.24 9.93267 77.432 10.5087L73.148 12.3087C72.908 11.5887 72.464 10.9407 71.816 10.3647C71.192 9.78867 70.328 9.50067 69.224 9.50067C68.168 9.50067 67.292 9.75267 66.596 10.2567C65.9 10.7367 65.552 11.3727 65.552 12.1647C65.552 12.9327 65.888 13.5927 66.56 14.1447C67.232 14.6727 68.3 15.1887 69.764 15.6927L71.384 16.2327C72.416 16.5927 73.352 17.0127 74.192 17.4927C75.056 17.9487 75.788 18.5007 76.388 19.1487C77.012 19.7967 77.48 20.5407 77.792 21.3807C78.128 22.1967 78.296 23.1447 78.296 24.2247C78.296 25.5687 78.02 26.7327 77.468 27.7167C76.94 28.6767 76.256 29.4687 75.416 30.0927C74.576 30.7167 73.628 31.1847 72.572 31.4967C71.516 31.8087 70.484 31.9647 69.476 31.9647ZM78.4995 13.7487H83.7915L86.7075 24.8007H86.9595L90.4515 13.7487H95.3115L98.8395 24.8007H99.0915L101.971 13.7487H107.191L101.539 31.3887H96.4635L92.9355 20.2647H92.6835L89.1555 31.3887H84.1515L78.4995 13.7487ZM110.968 11.1927C110.56 11.1927 110.164 11.1207 109.78 10.9767C109.42 10.8087 109.096 10.5927 108.808 10.3287C108.544 10.0407 108.328 9.71667 108.16 9.35667C108.016 8.99667 107.944 8.60067 107.944 8.16867C107.944 7.73667 108.016 7.34067 108.16 6.98067C108.328 6.62067 108.544 6.30867 108.808 6.04467C109.096 5.75667 109.42 5.54067 109.78 5.39667C110.164 5.22867 110.56 5.14467 110.968 5.14467C111.808 5.14467 112.528 5.44467 113.128 6.04467C113.728 6.62067 114.028 7.32867 114.028 8.16867C114.028 9.00867 113.728 9.72867 113.128 10.3287C112.528 10.9047 111.808 11.1927 110.968 11.1927ZM108.628 31.3887V13.7487H113.344V31.3887H108.628ZM125.369 5.32467C126.041 5.32467 126.665 5.38467 127.241 5.50467C127.817 5.62467 128.333 5.78067 128.789 5.97267L127.457 10.1847C127.217 10.0647 126.953 9.96867 126.665 9.89667C126.401 9.82467 126.065 9.78867 125.657 9.78867C124.961 9.78867 124.409 10.0167 124.001 10.4727C123.593 10.9047 123.389 11.5167 123.389 12.3087V13.7487H127.781V17.7807H123.389V31.3887H118.673V17.7807H115.505V13.7487H118.673V12.0207C118.673 10.9407 118.829 9.99267 119.141 9.17667C119.477 8.33667 119.945 7.64067 120.545 7.08867C121.145 6.51267 121.853 6.08067 122.669 5.79267C123.485 5.48067 124.385 5.32467 125.369 5.32467ZM131.558 17.7807H128.462V13.7487H131.558V8.34867H136.274V13.7487H140.594V17.7807H136.274V24.6207C136.274 25.0287 136.31 25.4127 136.382 25.7727C136.478 26.1087 136.646 26.3967 136.886 26.6367C137.222 27.0207 137.702 27.2127 138.326 27.2127C138.734 27.2127 139.058 27.1767 139.298 27.1047C139.538 27.0087 139.766 26.8887 139.982 26.7447L141.314 30.8847C140.762 31.1487 140.162 31.3407 139.514 31.4607C138.89 31.6047 138.194 31.6767 137.426 31.6767C136.538 31.6767 135.734 31.5447 135.014 31.2807C134.318 30.9927 133.73 30.6087 133.25 30.1287C132.122 29.0487 131.558 27.5127 131.558 25.5207V17.7807ZM148.783 30.5247L141.367 13.7487H146.731L151.195 24.4407H151.447L155.731 13.7487H160.987L149.935 39.1647H144.859L148.783 30.5247Z" fill="white"/>
</svg>
