<svg width="18" height="18" viewBox="0 0 18 18" fill="none" xmlns="http://www.w3.org/2000/svg">
<path d="M17.7779 0.972444C17.6296 0.824182 17.4537 0.749805 17.2505 0.749805C17.0474 0.749805 16.8718 0.824182 16.7232 0.972444L15.1998 2.48441C14.3639 1.69524 13.4067 1.08376 12.3287 0.650266C11.2507 0.216728 10.141 0 9.00029 0C6.85172 0 4.97678 0.650307 3.37513 1.95121C1.77343 3.25195 0.718771 4.94908 0.210938 7.043V7.12498C0.210938 7.22653 0.248003 7.31449 0.322257 7.38862C0.396511 7.46287 0.484351 7.49994 0.585902 7.49994H2.91794C3.08989 7.49994 3.207 7.41005 3.26955 7.23047C3.59764 6.44926 3.8046 5.99224 3.89063 5.85937C4.43746 4.96874 5.16404 4.26946 6.07035 3.76163C6.97675 3.25383 7.9533 2.99984 9.00012 2.99984C10.5706 2.99984 11.9339 3.53505 13.0902 4.60539L11.4728 6.22252C11.3247 6.37098 11.2502 6.54687 11.2502 6.75001C11.2502 6.95311 11.3247 7.12892 11.4728 7.27734C11.6214 7.42581 11.7972 7.49998 12.0004 7.49998H17.2505C17.4537 7.49998 17.6295 7.42581 17.7779 7.27734C17.9262 7.12892 18.0004 6.95315 18.0004 6.75001V1.49982C18.0004 1.29667 17.9266 1.12095 17.7779 0.972444Z" fill="#9B9D9E"/>
<path d="M17.3322 10.5002H15.0822C14.9103 10.5002 14.7931 10.59 14.7307 10.7697C14.4028 11.551 14.1956 12.0078 14.1097 12.1407C13.5627 13.0311 12.8361 13.7307 11.9301 14.2385C11.0236 14.7464 10.0471 15.0001 9.00021 15.0001C8.24244 15.0001 7.51188 14.8596 6.80883 14.5785C6.1057 14.297 5.47669 13.8984 4.92207 13.3828L6.52762 11.7773C6.676 11.629 6.75026 11.453 6.75026 11.25C6.75026 11.0469 6.676 10.8709 6.52762 10.7227C6.37915 10.5741 6.20343 10.4997 6.00029 10.4997H0.750092C0.546828 10.4997 0.371024 10.5741 0.222598 10.7227C0.0741719 10.8709 0 11.0469 0 11.25V16.5002C0 16.7032 0.0741719 16.8792 0.222639 17.0276C0.371188 17.1757 0.546992 17.2504 0.750133 17.2504C0.953234 17.2504 1.12896 17.1758 1.27746 17.0276L2.78918 15.5157C3.62519 16.3124 4.57645 16.9259 5.64289 17.3555C6.70933 17.7854 7.81288 18 8.95345 18C11.0943 18 12.9614 17.3496 14.5552 16.0489C16.1489 14.7482 17.1959 13.0507 17.6961 10.957C17.7039 10.9414 17.7076 10.914 17.7076 10.8751C17.7076 10.7734 17.6704 10.6858 17.5962 10.6113C17.5219 10.5375 17.4339 10.5002 17.3322 10.5002Z" fill="#9B9D9E"/>
</svg>
