<svg width="16" height="18" viewBox="0 0 16 18" fill="none" xmlns="http://www.w3.org/2000/svg">
<path d="M7.39502 8.67062C8.5862 8.67062 9.61767 8.24339 10.4605 7.40047C11.3032 6.55769 11.7305 5.52649 11.7305 4.33517C11.7305 3.14426 11.3032 2.11293 10.4603 1.26987C9.6174 0.427228 8.58606 0 7.39502 0C6.2037 0 5.1725 0.427228 4.32972 1.27001C3.48694 2.11279 3.05957 3.14413 3.05957 4.33517C3.05957 5.52649 3.48694 6.55783 4.32985 7.40061C5.17277 8.24325 6.20411 8.67062 7.39502 8.67062V8.67062Z" fill="#9B9D9E"/>
<path d="M14.981 13.841C14.9567 13.4903 14.9075 13.1077 14.8351 12.7037C14.7621 12.2966 14.668 11.9118 14.5554 11.5601C14.4391 11.1966 14.2809 10.8376 14.0853 10.4936C13.8824 10.1366 13.644 9.82567 13.3764 9.56983C13.0967 9.30218 12.7542 9.08699 12.3582 8.93002C11.9635 8.77388 11.5261 8.69478 11.0582 8.69478C10.8745 8.69478 10.6968 8.77017 10.3536 8.9936C10.1424 9.13134 9.89531 9.29064 9.61956 9.46684C9.38376 9.61707 9.06434 9.75783 8.66979 9.88528C8.28486 10.0098 7.89403 10.073 7.50827 10.073C7.12252 10.073 6.73182 10.0098 6.34648 9.88528C5.95235 9.75797 5.63292 9.61721 5.3974 9.46697C5.12426 9.29243 4.87707 9.13313 4.6627 8.99347C4.31993 8.77003 4.14209 8.69464 3.95834 8.69464C3.49033 8.69464 3.05308 8.77388 2.65853 8.93016C2.26275 9.08685 1.92012 9.30204 1.64011 9.56997C1.37273 9.82595 1.13419 10.1367 0.931496 10.4936C0.736078 10.8376 0.577876 11.1965 0.461422 11.5603C0.348951 11.912 0.254881 12.2966 0.181822 12.7037C0.10945 13.1071 0.060287 13.4899 0.03598 13.8414C0.0120849 14.1858 0 14.5433 0 14.9043C0 15.8439 0.298689 16.6046 0.887689 17.1656C1.46941 17.7192 2.23913 18 3.17516 18H11.8422C12.7782 18 13.5477 17.7193 14.1295 17.1656C14.7187 16.605 15.0174 15.8442 15.0174 14.9042C15.0172 14.5415 15.005 14.1838 14.981 13.841V13.841Z" fill="#9B9D9E"/>
</svg>
